<svg xmlns="http://www.w3.org/2000/svg" xmlns:svg="http://www.w3.org/2000/svg" id="svg3344" width="150" height="100" version="1.1" viewBox="0 0 150 100"><metadata id="metadata3349"/><g style="fill:#690;fill-opacity:1" id="layer1" transform="translate(-17.144857,-22.362199)"><circle id="circle4219" cx="138.571" cy="106.862" r="13" style="opacity:1;fill:#c00;fill-opacity:1;stroke:#c00;stroke-width:5;stroke-linecap:butt;stroke-linejoin:miter;stroke-miterlimit:4;stroke-dasharray:none;stroke-dashoffset:0;stroke-opacity:1"/><circle style="opacity:1;fill:none;fill-opacity:1;stroke:#bbb;stroke-width:5;stroke-linecap:butt;stroke-linejoin:miter;stroke-miterlimit:4;stroke-dasharray:none;stroke-dashoffset:0;stroke-opacity:1" id="circle4741" cx="138.571" cy="72.362" r="13"/><circle id="circle4743" cx="138.571" cy="37.862" r="13" style="opacity:1;fill:none;fill-opacity:1;stroke:#bbb;stroke-width:5;stroke-linecap:butt;stroke-linejoin:miter;stroke-miterlimit:4;stroke-dasharray:none;stroke-dashoffset:0;stroke-opacity:1"/><path style="fill:#c00;fill-opacity:1" id="path12-1" d="m 67.62084,22.362177 c -15.906,0 -30.17278,10.945584 -29.67578,29.642574 l -0.0156,15.63282 c 0,0 0.23906,0.0215 -0.96094,0.0215 -1.27,0 -9.638671,1.47254 -9.638671,8.93554 l 0,35.824229 c 0,7.959 9.418671,9.94335 9.638671,9.94336 l 61.20313,0 c 0.22,0 9.15429,-0.99336 9.15429,-9.94336 l 0,-35.328129 c 10e-4,-8.455 -8.45469,-9.43164 -8.67969,-9.43164 l -1.92578,0 0,-15.6543 c -0.098,-19.194 -13.188609,-29.642578 -29.09961,-29.642578 z m -0.29297,11.947264 c 9.741001,0 15.904301,6.95735 15.904301,17.90235 l 0.01,15.44726 -31.835941,0 0.0156,-15.44726 c 0,-9.949 6.07125,-17.90235 15.90625,-17.90235 z"/></g></svg>