<svg xmlns="http://www.w3.org/2000/svg" xmlns:svg="http://www.w3.org/2000/svg" id="svg4727" width="24" height="24" version="1.1"><defs id="defs4729"><clipPath id="clipPath1562" clipPathUnits="userSpaceOnUse"><path id="path1564" d="M 0,96 96,96 96,0 0,0 0,96 z"/></clipPath></defs><metadata id="metadata4732"/><g id="layer1" transform="translate(0,-1028.3622)"><path id="path1568" d="m 16.864391,1048.0047 c -0.782485,0.4967 -1.633842,0.8697 -2.515338,1.1059 -1.436649,0.3849 -2.96078,0.3964 -4.4342797,0.049 l -1.3872796,2.5988 -2.0590386,-5.6176 6.0385759,-1.8378 -1.562313,2.9317 c 1.656792,0.2549 3.364069,-0.092 4.793074,-1.0031 2.713237,-1.7301 3.887081,-5.0626 2.855961,-8.0997 l 1.987729,-0.6748 c 1.344261,3.9563 -0.183628,8.2938 -3.716745,10.548 m -3.808344,-14.5146 c -1.659759,-0.257 -3.3668261,0.091 -4.7950589,1.0033 -2.7145664,1.7276 -3.8862597,5.0564 -2.8564342,8.1001 l -1.9877256,0.674 c -1.342574,-3.9619 0.1857737,-8.2967 3.7138858,-10.5466 2.0678737,-1.3167 4.5790669,-1.7258 6.9571449,-1.1599 l 1.385996,-2.5946 2.059238,5.6173 -6.042663,1.8364 1.565703,-2.9299 z" style="fill:#fff;fill-opacity:1;fill-rule:evenodd;stroke:none"/></g></svg>