<svg xmlns="http://www.w3.org/2000/svg" xmlns:svg="http://www.w3.org/2000/svg" xmlns:xlink="http://www.w3.org/1999/xlink" id="svg4727" width="16" height="25" version="1.1"><defs id="defs4729"><linearGradient id="linearGradient3753"><stop style="stop-color:#828282;stop-opacity:1" id="stop3755" offset="0"/><stop style="stop-color:#919191;stop-opacity:1" id="stop3757" offset="1"/></linearGradient><clipPath id="clipPath1562" clipPathUnits="userSpaceOnUse"><path id="path1564" d="M 0,96 96,96 96,0 0,0 0,96 z"/></clipPath><linearGradient id="linearGradient3759" x1="2.935" x2="21.064" y1="1040.362" y2="1040.362" gradientTransform="matrix(-0.34228944,0.59286271,-0.59286271,-0.34228944,628.89863,1388.8527)" gradientUnits="userSpaceOnUse" xlink:href="#linearGradient3753"/><linearGradient id="linearGradient3759-1" x1="2.935" x2="21.064" y1="1040.362" y2="1040.362" gradientUnits="userSpaceOnUse" xlink:href="#linearGradient3753-7"/><linearGradient id="linearGradient3753-7"><stop style="stop-color:#828282;stop-opacity:1" id="stop3755-4" offset="0"/><stop style="stop-color:#919191;stop-opacity:1" id="stop3757-0" offset="1"/></linearGradient><linearGradient id="linearGradient3004" x1="2.935" x2="21.064" y1="1040.362" y2="1040.362" gradientTransform="matrix(0,-0.68457889,0.68457889,0,-704.20959,1048.0763)" gradientUnits="userSpaceOnUse" xlink:href="#linearGradient3753-7"/></defs><metadata id="metadata4732"/><g id="layer1" transform="translate(0,-1027.3622)"><path id="path1568" d="m 2.7675198,1043.1923 c -0.3403535,-0.5355 -0.5950861,-1.1186 -0.7570966,-1.7219 -0.2635748,-0.9835 -0.2713606,-2.0268 -0.03301,-3.0356 l -1.77917175,-0.9499 3.84585825,-1.4096 1.2581098,4.1339 -2.0068089,-1.0697 c -0.174587,1.1341 0.063017,2.3029 0.6866235,3.2812 1.184384,1.8574 3.4657218,2.661 5.5448397,1.955 l 0.4620554,1.3609 c -2.7084329,0.9203 -5.6779389,-0.1257 -7.2210201,-2.5444 m 9.9364726,-2.6072 c 0.175994,-1.1362 -0.06205,-2.3048 -0.686808,-3.2825 -1.182629,-1.8584 -3.4615756,-2.6605 -5.5452654,-1.9555 l -0.461374,-1.3608 c 2.7123171,-0.919 5.6796934,0.1272 7.2200434,2.5425 0.901485,1.4155 1.18135,3.1347 0.794055,4.7627 l 1.776005,0.9492 -3.845337,1.4097 -1.257225,-4.1368 2.005902,1.0715 z" style="fill:url(#linearGradient3759);fill-opacity:1;fill-rule:evenodd;stroke:none"/></g></svg>