<svg xmlns="http://www.w3.org/2000/svg" xmlns:svg="http://www.w3.org/2000/svg" id="svg4727" width="24" height="24" version="1.1"><defs id="defs4729"><clipPath id="clipPath1562" clipPathUnits="userSpaceOnUse"><path id="path1564" d="M 0,96 96,96 96,0 0,0 0,96 z"/></clipPath></defs><metadata id="metadata4732"/><g id="layer1" transform="translate(0,-1028.3622)"><path id="path1568" d="m 7.8133687,1048.3965 c -0.8214412,-0.4292 -1.5699729,-0.9803 -2.2154223,-1.6253 -1.0516534,-1.0518 -1.8236812,-2.366 -2.2595774,-3.8157 l -2.94427316,0.098 3.83546326,-4.592 4.6108723,4.3106 -3.3200977,0.1129 c 0.607669,1.5622 1.761739,2.8673 3.2652609,3.6494 2.8549324,1.4846 6.3278804,0.835 8.4425434,-1.5766 l 1.578244,1.3841 c -2.754133,3.1423 -7.274442,3.9878 -10.9932267,2.0552 m 10.6658477,-10.5554 c -0.607285,-1.566 -1.762224,-2.8703 -3.266386,-3.6511 -2.853447,-1.487 -6.32213,-0.8373 -8.4431216,1.5763 l -1.5775447,-1.3844 c 2.7597725,-3.1436 7.2780063,-3.9874 10.9905263,-2.0569 2.174253,1.1324 3.784143,3.1026 4.48311,5.445 l 2.939992,-0.097 -3.835134,4.5921 -4.611682,-4.3149 3.320211,-0.109 z" style="fill:#fff;fill-opacity:1;fill-rule:evenodd;stroke:none"/></g></svg>