<svg xmlns="http://www.w3.org/2000/svg" xmlns:svg="http://www.w3.org/2000/svg" xmlns:xlink="http://www.w3.org/1999/xlink" id="svg4727" width="16" height="25" version="1.1"><defs id="defs4729"><linearGradient id="linearGradient3753"><stop style="stop-color:#828282;stop-opacity:1" id="stop3755" offset="0"/><stop style="stop-color:#919191;stop-opacity:1" id="stop3757" offset="1"/></linearGradient><clipPath id="clipPath1562" clipPathUnits="userSpaceOnUse"><path id="path1564" d="M 0,96 96,96 96,0 0,0 0,96 z"/></clipPath><linearGradient id="linearGradient3759" x1="2.935" x2="21.064" y1="1040.362" y2="1040.362" gradientTransform="matrix(0.68457889,0,0,0.68457889,-0.21453515,327.65264)" gradientUnits="userSpaceOnUse" xlink:href="#linearGradient3753"/><linearGradient id="linearGradient3759-1" x1="2.935" x2="21.064" y1="1040.362" y2="1040.362" gradientUnits="userSpaceOnUse" xlink:href="#linearGradient3753-7"/><linearGradient id="linearGradient3753-7"><stop style="stop-color:#828282;stop-opacity:1" id="stop3755-4" offset="0"/><stop style="stop-color:#919191;stop-opacity:1" id="stop3757-0" offset="1"/></linearGradient><linearGradient id="linearGradient3004" x1="2.935" x2="21.064" y1="1040.362" y2="1040.362" gradientTransform="matrix(0,-0.68457889,0.68457889,0,-704.20959,1048.0763)" gradientUnits="userSpaceOnUse" xlink:href="#linearGradient3753-7"/></defs><metadata id="metadata4732"/><g id="layer1" transform="translate(0,-1027.3622)"><path id="path1568" d="m 13.500435,1042.7283 c -0.293889,0.5623 -0.670955,1.0748 -1.112714,1.5166 -0.719972,0.72 -1.619645,1.2484 -2.6122162,1.5467 l 0.067089,2.0157 -3.1435864,-2.6257 2.9510143,-3.1565 0.07722,2.2728 c 1.0695173,-0.4159 1.9628243,-1.2062 2.4983023,-2.2353 1.016394,-1.9544 0.571623,-4.3319 -1.079239,-5.7795 l 0.947458,-1.0805 c 2.151152,1.8854 2.730032,4.98 1.406946,7.5257 m -7.2260039,-7.3016 c -1.071982,0.4157 -1.9650837,1.2061 -2.4993975,2.2361 -1.0180373,1.9534 -0.5732664,4.328 1.0791017,5.78 l -0.947731,1.08 c -2.1521107,-1.8894 -2.7297583,-4.9824 -1.4081788,-7.524 0.7752856,-1.4883 2.1240429,-2.5905 3.7276005,-3.069 l -0.066404,-2.0127 3.1435861,2.6254 -2.9538893,3.1571 -0.074619,-2.2729 z" style="fill:url(#linearGradient3759);fill-opacity:1;fill-rule:evenodd;stroke:none"/></g></svg>