<svg xmlns="http://www.w3.org/2000/svg" xmlns:svg="http://www.w3.org/2000/svg" id="svg4727" width="24" height="24" version="1.1"><defs id="defs4729"><clipPath id="clipPath1562" clipPathUnits="userSpaceOnUse"><path id="path1564" d="M 0,96 96,96 96,0 0,0 0,96 z"/></clipPath></defs><metadata id="metadata4732"/><g id="layer1" transform="translate(0,-1028.3622)"><path id="path1568" d="m 12.39161,1049.4131 c -0.926002,0.039 -1.849799,-0.064 -2.7312967,-0.2999 -1.4366246,-0.385 -2.7623107,-1.1371 -3.8646989,-2.1747 l -2.5008194,1.557 1.0256203,-5.8945 6.1484597,1.4277 -2.8188523,1.7578 c 1.3073739,1.0491 2.9593693,1.6023 4.6524743,1.5278 3.214782,-0.1417 5.89761,-2.4408 6.523184,-5.5866 l 2.058824,0.4095 c -0.813986,4.0984 -4.305926,7.0908 -8.492795,7.2765 m 3.959177,-14.4742 c -1.308894,-1.0525 -2.961257,-1.6046 -4.654293,-1.5287 -3.2146834,0.1389 -5.8937996,2.4359 -6.5237945,5.5867 l -2.0584209,-0.4102 c 0.8182468,-4.1023 4.3092347,-7.0922 8.4896194,-7.2766 2.449181,-0.1064 4.828488,0.7949 6.605014,2.474 l 2.497608,-1.554 -1.025298,5.8944 -6.151299,-1.431 2.820888,-1.7545 z" style="fill:#fff;fill-opacity:1;fill-rule:evenodd;stroke:none"/></g></svg>