<svg xmlns="http://www.w3.org/2000/svg" xmlns:svg="http://www.w3.org/2000/svg" xmlns:xlink="http://www.w3.org/1999/xlink" id="svg4727" width="16" height="25" version="1.1"><defs id="defs4729"><linearGradient id="linearGradient3753"><stop style="stop-color:#828282;stop-opacity:1" id="stop3755" offset="0"/><stop style="stop-color:#919191;stop-opacity:1" id="stop3757" offset="1"/></linearGradient><clipPath id="clipPath1562" clipPathUnits="userSpaceOnUse"><path id="path1564" d="M 0,96 96,96 96,0 0,0 0,96 z"/></clipPath><linearGradient id="linearGradient3759" x1="2.935" x2="21.064" y1="1040.362" y2="1040.362" gradientTransform="matrix(0.34228945,0.59286271,-0.59286271,0.34228945,620.68444,676.64331)" gradientUnits="userSpaceOnUse" xlink:href="#linearGradient3753"/><linearGradient id="linearGradient3759-1" x1="2.935" x2="21.064" y1="1040.362" y2="1040.362" gradientUnits="userSpaceOnUse" xlink:href="#linearGradient3753-7"/><linearGradient id="linearGradient3753-7"><stop style="stop-color:#828282;stop-opacity:1" id="stop3755-4" offset="0"/><stop style="stop-color:#919191;stop-opacity:1" id="stop3757-0" offset="1"/></linearGradient><linearGradient id="linearGradient3004" x1="2.935" x2="21.064" y1="1040.362" y2="1040.362" gradientTransform="matrix(0,-0.68457889,0.68457889,0,-704.20959,1048.0763)" gradientUnits="userSpaceOnUse" xlink:href="#linearGradient3753-7"/></defs><metadata id="metadata4732"/><g id="layer1" transform="translate(0,-1027.3622)"><path id="path1568" d="m 8.2682541,1046.0586 c -0.6339495,0.027 -1.2663183,-0.044 -1.8697922,-0.2053 -0.9834982,-0.2635 -1.8909569,-0.7784 -2.6454029,-1.4892 l -1.712107,1.066 0.7021717,-4.0354 4.2091153,0.9774 -1.9296863,1.2033 c 0.894928,0.7183 2.0259182,1.0969 3.1849397,1.046 2.2007756,-0.097 4.0373346,-1.6709 4.4655676,-3.8244 l 1.409514,0.2802 c -0.557238,2.8057 -2.947829,4.8544 -5.8140138,4.9814 m 2.7103828,-9.9088 c -0.89599,-0.7205 -2.0270698,-1.0987 -3.1862082,-1.0465 -2.200725,0.095 -4.0347788,1.6676 -4.4660872,3.8246 l -1.409152,-0.2808 c 0.5602012,-2.8085 2.9499738,-4.8552 5.8118535,-4.9815 1.676567,-0.073 3.3054519,0.5443 4.5216659,1.6937 l 1.709822,-1.0638 -0.701842,4.035 -4.2110813,-0.9795 1.9310803,-1.2011 z" style="fill:url(#linearGradient3759);fill-opacity:1;fill-rule:evenodd;stroke:none"/></g></svg>