<svg xmlns="http://www.w3.org/2000/svg" xmlns:svg="http://www.w3.org/2000/svg" id="svg4727" width="24" height="24" version="1.1"><defs id="defs4729"><clipPath id="clipPath1562" clipPathUnits="userSpaceOnUse"><path id="path1564" d="M 0,96 96,96 96,0 0,0 0,96 z"/></clipPath></defs><metadata id="metadata4732"/><g id="layer1" transform="translate(0,-1028.3622)"><path id="path1568" d="m 20.034171,1044.5482 c -0.4293,0.8214 -0.9801,1.5701 -1.6254,2.2154 -1.0517,1.0517 -2.3659,1.8237 -3.8158,2.2594 l 0.098,2.9443 -4.592,-3.8355 4.3107,-4.6108 0.1128,3.32 c 1.5623,-0.6076 2.8672,-1.762 3.6494,-3.2652 1.4847,-2.8549 0.835,-6.3279 -1.5765,-8.4425 l 1.384,-1.5783 c 3.1423,2.7541 3.9879,7.2745 2.0552,10.9932 M 9.4791713,1033.8824 c -1.5659,0.6073 -2.8705,1.7618 -3.651,3.2664 -1.4871,2.8534 -0.8374,6.3221 1.5763,8.4431 l -1.3844,1.5776 c -3.1437,-2.7599 -3.9875,-7.2781 -2.057,-10.9906 1.1325,-2.1742 3.1027,-3.7841 5.4451,-4.4831 l -0.097,-2.94 4.5919997,3.8351 -4.3148997,4.6117 -0.109,-3.3202 z" style="fill:#fff;fill-opacity:1;fill-rule:evenodd;stroke:none"/></g></svg>