<svg xmlns="http://www.w3.org/2000/svg" xmlns:svg="http://www.w3.org/2000/svg" xmlns:xlink="http://www.w3.org/1999/xlink" id="svg4727" width="16" height="25" version="1.1"><defs id="defs4729"><linearGradient id="linearGradient3753"><stop style="stop-color:#828282;stop-opacity:1" id="stop3755" offset="0"/><stop style="stop-color:#919191;stop-opacity:1" id="stop3757" offset="1"/></linearGradient><clipPath id="clipPath1562" clipPathUnits="userSpaceOnUse"><path id="path1564" d="M 0,96 96,96 96,0 0,0 0,96 z"/></clipPath><linearGradient id="linearGradient3759" x1="2.935" x2="21.064" y1="1040.362" y2="1040.362" gradientTransform="matrix(-0.59286271,0.34228945,-0.34228945,-0.59286271,371.21847,1652.5463)" gradientUnits="userSpaceOnUse" xlink:href="#linearGradient3753"/><linearGradient id="linearGradient3759-1" x1="2.935" x2="21.064" y1="1040.362" y2="1040.362" gradientUnits="userSpaceOnUse" xlink:href="#linearGradient3753-7"/><linearGradient id="linearGradient3753-7"><stop style="stop-color:#828282;stop-opacity:1" id="stop3755-4" offset="0"/><stop style="stop-color:#919191;stop-opacity:1" id="stop3757-0" offset="1"/></linearGradient><linearGradient id="linearGradient3004" x1="2.935" x2="21.064" y1="1040.362" y2="1040.362" gradientTransform="matrix(0,-0.68457889,0.68457889,0,-704.20959,1048.0763)" gradientUnits="userSpaceOnUse" xlink:href="#linearGradient3753-7"/></defs><metadata id="metadata4732"/><g id="layer1" transform="translate(0,-1027.3622)"><path id="path1568" d="m 1.8032194,1040.13 c -0.027005,-0.6339 0.04394,-1.2662 0.2052851,-1.8697 0.2634876,-0.9835 0.7783949,-1.891 1.4892125,-2.6454 l -1.0658579,-1.7123 4.035411,0.7022 -0.977395,4.2091 -1.2030975,-1.9298 c -0.7182468,0.8949 -1.0968757,2.0259 -1.0459666,3.185 0.097007,2.2007 1.6709031,4.0373 3.824472,4.4655 l -0.2802982,1.4096 c -2.8057217,-0.5573 -4.8543894,-2.9479 -4.9813869,-5.8141 m 9.9088381,2.7104 c 0.720515,-0.896 1.098663,-2.0271 1.046456,-3.1862 -0.09499,-2.2007 -1.667562,-4.0348 -3.8245903,-4.4661 l 0.2808384,-1.4092 c 2.8084359,0.5603 4.8551589,2.95 4.9814909,5.8119 0.07296,1.6766 -0.544271,3.3054 -1.693678,4.5217 l 1.063465,1.71 -4.0350092,-0.7018 0.9796112,-4.2112 1.201412,1.9309 z" style="fill:url(#linearGradient3759);fill-opacity:1;fill-rule:evenodd;stroke:none"/></g></svg>