<svg xmlns="http://www.w3.org/2000/svg" xmlns:svg="http://www.w3.org/2000/svg" xmlns:xlink="http://www.w3.org/1999/xlink" id="svg4727" width="16" height="25" version="1.1"><defs id="defs4729"><linearGradient id="linearGradient3753"><stop style="stop-color:#828282;stop-opacity:1" id="stop3755" offset="0"/><stop style="stop-color:#919191;stop-opacity:1" id="stop3757" offset="1"/></linearGradient><clipPath id="clipPath1562" clipPathUnits="userSpaceOnUse"><path id="path1564" d="M 0,96 96,96 96,0 0,0 0,96 z"/></clipPath><linearGradient id="linearGradient3759" x1="2.935" x2="21.064" y1="1040.362" y2="1040.362" gradientTransform="matrix(0.59286271,0.34228944,-0.34228944,0.59286271,356.99078,418.96336)" gradientUnits="userSpaceOnUse" xlink:href="#linearGradient3753"/><linearGradient id="linearGradient3759-1" x1="2.935" x2="21.064" y1="1040.362" y2="1040.362" gradientUnits="userSpaceOnUse" xlink:href="#linearGradient3753-7"/><linearGradient id="linearGradient3753-7"><stop style="stop-color:#828282;stop-opacity:1" id="stop3755-4" offset="0"/><stop style="stop-color:#919191;stop-opacity:1" id="stop3757-0" offset="1"/></linearGradient><linearGradient id="linearGradient3004" x1="2.935" x2="21.064" y1="1040.362" y2="1040.362" gradientTransform="matrix(0,-0.68457889,0.68457889,0,-704.20959,1048.0763)" gradientUnits="userSpaceOnUse" xlink:href="#linearGradient3753-7"/></defs><metadata id="metadata4732"/><g id="layer1" transform="translate(0,-1027.3622)"><path id="path1568" d="m 11.330466,1045.0945 c -0.535665,0.3401 -1.118464,0.5954 -1.7219381,0.7571 -0.9835141,0.2635 -2.0268538,0.2713 -3.0355956,0.033 l -0.9497493,1.7792 -1.4095756,-3.8458 4.1339033,-1.2581 -1.0695255,2.0069 c 1.1341791,0.1746 2.3029557,-0.063 3.2812428,-0.6866 1.857423,-1.1844 2.66099,-3.4657 1.955102,-5.5448 l 1.360773,-0.4621 c 0.920252,2.7084 -0.125723,5.6779 -2.544399,7.221 m -2.6071032,-9.9364 c -1.1362136,-0.176 -2.3048624,0.062 -3.2825917,0.6868 -1.8583462,1.1827 -2.6604633,3.4615 -1.9554705,5.5452 l -1.3607592,0.4614 c -0.9190825,-2.7123 0.12716,-5.6797 2.5424814,-7.22 1.415567,-0.9013 3.1347251,-1.1814 4.7626967,-0.7941 l 0.9488425,-1.7762 1.409725,3.8454 -4.1366928,1.2572 1.0718281,-2.0057 z" style="fill:url(#linearGradient3759);fill-opacity:1;fill-rule:evenodd;stroke:none"/></g></svg>