<svg xmlns="http://www.w3.org/2000/svg" xmlns:svg="http://www.w3.org/2000/svg" xmlns:xlink="http://www.w3.org/1999/xlink" id="svg4727" width="16" height="25" version="1.1"><defs id="defs4729"><linearGradient id="linearGradient3753"><stop style="stop-color:#828282;stop-opacity:1" id="stop3755" offset="0"/><stop style="stop-color:#919191;stop-opacity:1" id="stop3757" offset="1"/></linearGradient><clipPath id="clipPath1562" clipPathUnits="userSpaceOnUse"><path id="path1564" d="M 0,96 96,96 96,0 0,0 0,96 z"/></clipPath><linearGradient id="linearGradient3759" x1="2.935" x2="21.064" y1="1040.362" y2="1040.362" gradientTransform="matrix(0,0.68457889,-0.68457889,0,720.20964,1031.6476)" gradientUnits="userSpaceOnUse" xlink:href="#linearGradient3753"/><linearGradient id="linearGradient3759-1" x1="2.935" x2="21.064" y1="1040.362" y2="1040.362" gradientUnits="userSpaceOnUse" xlink:href="#linearGradient3753-7"/><linearGradient id="linearGradient3753-7"><stop style="stop-color:#828282;stop-opacity:1" id="stop3755-4" offset="0"/><stop style="stop-color:#919191;stop-opacity:1" id="stop3757-0" offset="1"/></linearGradient><linearGradient id="linearGradient3004" x1="2.935" x2="21.064" y1="1040.362" y2="1040.362" gradientTransform="matrix(0,-0.68457889,0.68457889,0,-704.20959,1048.0763)" gradientUnits="userSpaceOnUse" xlink:href="#linearGradient3753-7"/></defs><metadata id="metadata4732"/><g id="layer1" transform="translate(0,-1027.3622)"><path id="path1568" d="m 5.134016,1045.3625 c -0.5625164,-0.2936 -1.0746638,-0.6712 -1.5166375,-1.1127 -0.7199845,-0.7199 -1.2484168,-1.6196 -1.5463862,-2.6124 l -2.01572811,0.067 2.62579851,-3.1437 3.1565008,2.951 -2.2728074,0.077 c 0.4158804,1.0695 1.2060467,1.9629 2.2352387,2.4983 1.9544276,1.0164 4.3318842,0.5716 5.7794952,-1.0793 l 1.080575,0.9475 c -1.885433,2.1512 -4.9800951,2.7301 -7.5257839,1.407 m 7.3016599,-7.2261 c -0.4157,-1.072 -1.206143,-1.965 -2.236087,-2.4994 -1.9533835,-1.0181 -4.3280207,-0.5732 -5.7800448,1.0792 l -1.0799614,-0.9478 c 1.8893985,-2.1521 4.9823523,-2.7297 7.5239632,-1.4082 1.488449,0.7751 2.590455,2.1241 3.069027,3.7276 l 2.012649,-0.066 -2.625313,3.1435 -3.157153,-2.9539 2.272915,-0.075 z" style="fill:url(#linearGradient3759);fill-opacity:1;fill-rule:evenodd;stroke:none"/></g></svg>