<svg xmlns="http://www.w3.org/2000/svg" xmlns:svg="http://www.w3.org/2000/svg" id="svg3870" width="48" height="38" version="1.1"><defs id="defs3872"><filter id="filter4805" width="1.167" height="1.431" x="-.084" y="-.216"><feGaussianBlur id="feGaussianBlur4807" stdDeviation="1.533"/></filter><filter id="filter4809" width="1.167" height="1.32" x="-.084" y="-.16"><feGaussianBlur id="feGaussianBlur4811" stdDeviation="1.533"/></filter></defs><metadata id="metadata3875"/><g id="layer1" transform="translate(0,-1014.3622)"><g id="g5353"><path style="fill:#4d4d4d;fill-opacity:1;fill-rule:evenodd;stroke:none;filter:url(#filter4809)" id="path1198" d="m 1.9999969,1026.6726 0,23.0161 44.0000001,0 0,-23.0161 -22.000665,10.9382 -21.9993351,-10.9382 z" transform="matrix(0.89636602,0,0,0.89636602,2.4872183,107.09144)"/><path style="fill:#4d4d4d;fill-opacity:1;fill-rule:evenodd;stroke:none;filter:url(#filter4805)" id="path1202" d="m 1.9999969,1017.0357 0,6.1241 21.9993351,10.9348 22.000665,-10.9348 0,-6.1241 -44.0000001,0 z" transform="matrix(0.89636602,0,0,0.89636602,2.4872183,107.09144)"/><g id="g4763" transform="matrix(0.89636602,0,0,0.89636602,-52.511912,113.82897)"><path id="path1198-3" d="m 63.35789,1019.1561 0,23.0161 44,0 0,-23.0161 -22.000664,10.9382 -21.999336,-10.9382 z" style="fill:#fff;fill-opacity:1;fill-rule:evenodd;stroke:none"/><path id="path1202-1" d="m 63.35789,1009.5192 0,6.1241 21.999336,10.9348 22.000664,-10.9348 0,-6.1241 -44,0 z" style="fill:#fff;fill-opacity:1;fill-rule:evenodd;stroke:none"/></g></g></g></svg>