<svg xmlns="http://www.w3.org/2000/svg" xmlns:svg="http://www.w3.org/2000/svg" xmlns:xlink="http://www.w3.org/1999/xlink" id="svg8" width="768" height="432" version="1.1" viewBox="0 0 203.2 114.3"><defs id="defs2"><linearGradient id="linearGradient4786"><stop style="stop-color:#2c2c2c;stop-opacity:.82474226" id="stop4782" offset="0"/><stop style="stop-color:#4d4d4d;stop-opacity:0" id="stop4784" offset="1"/></linearGradient><filter style="color-interpolation-filters:sRGB" id="filter4734" width="1.077" height="1.068" x="-.038" y="-.034"><feGaussianBlur id="feGaussianBlur4736" stdDeviation="2.454"/></filter><filter style="color-interpolation-filters:sRGB" id="filter4752" width="1.077" height="1.068" x="-.038" y="-.034"><feGaussianBlur id="feGaussianBlur4754" stdDeviation="3.313"/></filter><filter style="color-interpolation-filters:sRGB" id="filter4766" width="1.077" height="1.068" x="-.038" y="-.034"><feGaussianBlur id="feGaussianBlur4768" stdDeviation="3.069"/></filter><filter style="color-interpolation-filters:sRGB" id="filter4776" width="1.077" height="1.068" x="-.038" y="-.034"><feGaussianBlur id="feGaussianBlur4778" stdDeviation="3.069"/></filter><linearGradient id="linearGradient4788" x1="101.143" x2="101.143" y1="314.291" y2="265.863" gradientTransform="matrix(1,0,0,1.3262412,0,-98.288721)" gradientUnits="userSpaceOnUse" xlink:href="#linearGradient4786"/><filter style="color-interpolation-filters:sRGB" id="filter4752-3" width="1.077" height="1.068" x="-.038" y="-.034"><feGaussianBlur id="feGaussianBlur4754-6" stdDeviation="3.313"/></filter></defs><metadata id="metadata5"/><g id="layer1" transform="translate(0,-182.69998)"><rect id="rect3713-3-3" width="112.657" height="185.532" x="230.221" y="33.993" transform="rotate(31.043586)" style="fill:gray;stroke-width:.54778701"/><g id="g878" transform="translate(-4.0090429,5.0781211)"><rect id="rect4770" width="112.657" height="185.532" x="174.444" y="38.242" transform="rotate(31.043586)" style="fill:#4d4d4d;stroke-width:.54778701;filter:url(#filter4776)"/><rect style="fill:#999;stroke-width:.54778701" id="rect3713-3-5" width="112.657" height="185.532" x="174.444" y="38.242" transform="rotate(31.043586)"/></g><g id="g874"><rect id="rect4756" width="112.657" height="185.532" x="145.425" y="35.12" transform="rotate(31.043586,-2.0844004,-14.969358)" style="fill:#666;stroke-width:.54778701;filter:url(#filter4766)"/><rect style="fill:#ccc;stroke-width:.54778701" id="rect3713-3-7" width="112.657" height="185.532" x="138.004" y="38.339" transform="rotate(31.043586)"/></g><g id="g870"><rect id="rect4738" width="121.586" height="200.238" x="117.317" y="58.148" transform="rotate(31.043586,-2.0844004,-14.969358)" style="fill:#666;stroke-width:.59120661;filter:url(#filter4752)"/><rect style="fill:#f9f9f9;stroke-width:.59120661" id="rect3713-3" width="121.586" height="200.238" x="109.896" y="61.367" transform="rotate(31.043586)"/></g><g id="g866"><rect id="rect4738-7" width="121.586" height="200.238" x="117.317" y="58.148" transform="rotate(31.043586,-1.5723508,-128.40086)" style="fill:#666;stroke-width:.59120661;filter:url(#filter4752-3)"/><rect style="fill:#999;stroke-width:.59120661" id="rect3713-3-53" width="121.586" height="200.238" x="51.328" y="77.349" transform="rotate(31.043586)"/></g><rect style="opacity:1;fill:url(#linearGradient4788);fill-opacity:1;stroke-width:.45004764" id="rect4780" width="215.152" height="49.979" x="-6.147" y="251.297"/><g id="g862"><rect style="opacity:1;fill:#4d4d4d;stroke-width:.43795997;filter:url(#filter4734)" id="rect848" width="90.07" height="148.335" x="29.852" y="92.49" transform="rotate(31.043586,0.93322275,-9.1907515)"/><rect id="rect850" width="90.07" height="148.335" x="24.978" y="93.325" transform="rotate(31.043586)" style="fill:#666;stroke-width:.43795997"/></g></g></svg>