<svg xmlns="http://www.w3.org/2000/svg" xmlns:svg="http://www.w3.org/2000/svg" xmlns:xlink="http://www.w3.org/1999/xlink" id="svg104" width="192" height="192" version="1.1" viewBox="0 0 192 192"><defs id="defs32"><linearGradient id="linearGradient5100"><stop id="stop2" offset="0" stop-color="#fbfcfc" stop-opacity=".1"/><stop id="stop4" offset="1" stop-color="#fbfcfc" stop-opacity="0"/></linearGradient><radialGradient id="radialGradient5715" cx="0" cy="243.21" r="76" gradientTransform="matrix(2.5263 2.5263 -2.5263 2.5263 881.28 -176.47)" gradientUnits="userSpaceOnUse" xlink:href="#linearGradient5100"/><filter id="filter13488" width="1.28" height="1.21" x="-.14" y="-.105" style="color-interpolation-filters:sRGB"><feGaussianBlur id="feGaussianBlur8" stdDeviation="1.4"/></filter><filter id="filter13338" width="1.112" height="1.084" x="-.056" y="-.042" style="color-interpolation-filters:sRGB"><feGaussianBlur id="feGaussianBlur11" stdDeviation=".56"/></filter><filter id="filter13052" width="1.077" height="1.127" x="-.039" y="-.064" style="color-interpolation-filters:sRGB"><feGaussianBlur id="feGaussianBlur14" stdDeviation="2.44"/></filter><filter id="filter13165" width="1.077" height="1.127" x="-.039" y="-.064" style="color-interpolation-filters:sRGB"><feGaussianBlur id="feGaussianBlur17" stdDeviation="2.44"/></filter><linearGradient id="linearGradient14078" x1="80" x2="80" y1="252.3" y2="280.3" gradientTransform="translate(266.86 297.65)" gradientUnits="userSpaceOnUse"><stop id="stop20" offset="0" stop-color="#4d6570"/><stop id="stop22" offset="1" stop-color="#4d6570" stop-opacity=".06"/></linearGradient><filter id="filter12606" width="1.067" height="1.171" x="-.033" y="-.086" style="color-interpolation-filters:sRGB"><feGaussianBlur id="feGaussianBlur25" stdDeviation="2"/></filter><filter id="filter13315" width="1.109" height="1.085" x="-.055" y="-.043" style="color-interpolation-filters:sRGB"><feGaussianBlur id="feGaussianBlur28" stdDeviation="2.92"/></filter><linearGradient id="linearGradient4536" x1="192" x2="192" y1="140.3" y2="332.3" gradientTransform="translate(266.86 298.37)" gradientUnits="userSpaceOnUse" xlink:href="#linearGradient5100"/></defs><metadata id="metadata34"/><g id="g102" transform="translate(-266.86 -437.95)"><g id="g42"><path style="color-rendering:auto;color:#000;shape-rendering:auto;image-rendering:auto" id="path36" d="m316.86 449.95c-3.324 0-6 2.676-6 6v8c0 3.324 2.676 6 6 6h14v16h8v-16h2c3.324 0 6-2.676 6-6v-8c0-3.324-2.676-6-6-6zm68 0c-3.324 0-6 2.676-6 6v8c0 3.324 2.676 6 6 6h2v16h8v-16h14c3.324 0 6-2.676 6-6v-8c0-3.324-2.676-6-6-6zm-86 108v12l25.607 38c2.0698 3.5886 5.9358 6 10.393 6h56c4.4567 0 8.3227-2.4114 10.393-6h0.0117l25.596-38v-12z" filter="url(#filter13315)" opacity=".2"/><path style="color-rendering:auto;color:#000;shape-rendering:auto;image-rendering:auto" id="path38" d="m316.86 445.95c-3.324 0-6 2.676-6 6v8c0 3.324 2.676 6 6 6h14v16h8v-16h2c3.324 0 6-2.676 6-6v-8c0-3.324-2.676-6-6-6zm68 0c-3.324 0-6 2.676-6 6v8c0 3.324 2.676 6 6 6h2v16h8v-16h14c3.324 0 6-2.676 6-6v-8c0-3.324-2.676-6-6-6zm-86 108v12l25.607 38c2.0698 3.5886 5.9358 6 10.393 6h56c4.4567 0 8.3227-2.4114 10.393-6h0.0117l25.596-38v-12z" filter="url(#filter13315)" opacity=".2"/><path style="color-rendering:auto;color:#000;shape-rendering:auto;image-rendering:auto" id="path40" d="m290.86 553.95 8 12 25.607 38c2.0698 3.5886 5.9358 6 10.393 6h56c4.4568 0 8.3228-2.4114 10.393-6h0.0117l25.596-38 8-12z" filter="url(#filter12606)" opacity=".2"/></g><g id="g46" transform="translate(266.86 297.65)"><path id="path44" fill="#607d8b" fill-rule="evenodd" d="m32 116v12l25.607 38c2.0698 3.5886 5.9358 6 10.393 6h56c4.4568 0 8.3228-2.4114 10.393-6h0.0117l25.6-38v-12z" transform="translate(0,140.3)"/></g><g id="g66"><rect style="color-rendering:auto;color:#000;shape-rendering:auto;image-rendering:auto" id="rect48" width="8" height="28" x="330.86" y="453.95" fill="#263238"/><rect style="color-rendering:auto;color:#000;shape-rendering:auto;image-rendering:auto" id="rect50" width="8" height="28" x="386.86" y="453.95" fill="#263238"/><path style="color-rendering:auto;color:#000;shape-rendering:auto;image-rendering:auto" id="path52" fill="#4d6570" d="m298.86 564.95v1l25.607 38c2.0698 3.5886 5.9358 6 10.393 6h56c4.4568 0 8.3228-2.4114 10.393-6h0.0117l25.596-38v-1l-25.596 38h-0.0117c-2.0698 3.5886-5.9358 6-10.393 6h-56c-4.4567 0-8.3228-2.4114-10.393-6z"/><rect style="color-rendering:auto;color:#000;shape-rendering:auto;image-rendering:auto" id="rect54" width="20" height="36" x="445.95" y="-346.86" fill="#607d8b" rx="6" ry="6" transform="rotate(90)"/><rect style="color-rendering:auto;color:#000;shape-rendering:auto;image-rendering:auto" id="rect56" width="20" height="36" x="445.95" y="-414.86" fill="#607d8b" rx="6" ry="6" transform="rotate(90)"/><path style="color-rendering:auto;color:#000;shape-rendering:auto;image-rendering:auto" id="path58" fill="#4d6570" d="m310.86 458.95v1c0 3.324 2.676 6 6 6h24c3.324 0 6-2.676 6-6v-1c0 3.324-2.676 6-6 6h-24c-3.324 0-6-2.676-6-6z"/><path style="color-rendering:auto;color:#000;shape-rendering:auto;image-rendering:auto" id="path60" fill="#4d6570" d="m378.86 458.95v1c0 3.324 2.676 6 6 6h24c3.324 0 6-2.676 6-6v-1c0 3.324-2.676 6-6 6h-24c-3.324 0-6-2.676-6-6z"/><path style="color-rendering:auto;color:#000;shape-rendering:auto;image-rendering:auto" id="path62" fill="#8097a2" d="m316.86 445.95c-3.324 0-6 2.676-6 6v1c0-3.324 2.676-6 6-6h24c3.324 0 6 2.676 6 6v-1c0-3.324-2.676-6-6-6z"/><path style="color-rendering:auto;color:#000;shape-rendering:auto;image-rendering:auto" id="path64" fill="#8097a2" d="m384.86 445.95c-3.324 0-6 2.676-6 6v1c0-3.324 2.676-6 6-6h24c3.324 0 6 2.676 6 6v-1c0-3.324-2.676-6-6-6z"/></g><path id="path68" fill="url(#linearGradient14078)" fill-rule="evenodd" d="m298.86 553.95v12l25.607 38c2.0698 3.5886 5.9358 6 10.393 6h56c4.4568 0 8.3228-2.4114 10.393-6h0.0117l25.596-38v-12z"/><g id="g76"><rect style="color-rendering:auto;color:#000;shape-rendering:auto;image-rendering:auto" id="rect70" width="92" height="152" x="180.3" y="-172" filter="url(#filter13052)" opacity=".2" rx="12" ry="12" transform="rotate(90 -15.396 282.25)"/><rect style="color-rendering:auto;color:#000;shape-rendering:auto;image-rendering:auto" id="rect72" width="92" height="152" x="176.3" y="-172" filter="url(#filter13165)" opacity=".2" rx="12" transform="rotate(90 -15.396 282.25)"/><rect style="color-rendering:auto;color:#000;shape-rendering:auto;image-rendering:auto" id="rect74" width="92" height="152" x="473.95" y="-438.86" fill="#5917ff" rx="12" transform="rotate(90)"/></g><path id="path78" fill="none" stroke="#fbe9e7" stroke-linecap="round" stroke-width="6" d="m302.86 489.95 60 32 60-32"/><path style="color-rendering:auto;color:#000;shape-rendering:auto;image-rendering:auto" id="path80" fill="#3034eb" d="m298.86 473.95c-6.648 0-12 5.352-12 12v1c0-6.648 5.352-12 12-12h128c6.648 0 12 5.352 12 12v-1c0-6.648-5.352-12-12-12z"/><path style="color-rendering:auto;color:#000;shape-rendering:auto;image-rendering:auto" id="path82" fill="#3034eb" d="m286.86 552.95v1c0 6.648 5.352 12 12 12h128c6.648 0 12-5.352 12-12v-1c0 6.648-5.352 12-12 12h-128c-6.648 0-12-5.352-12-12z"/><g id="g96" transform="translate(266.86 297.65)"><path style="color-rendering:auto;color:#000;shape-rendering:auto;image-rendering:auto" id="path84" d="m90 296.3c-3.324 0-6 2.676-6 6v12c0 0.27298 0.02557 0.53962 0.06055 0.80273 0.000255 0.002-0.000257 0.004 0 0.006a12 12 0 0 0 -0.061 1.19 12 12 0 0 0 12 12 12 12 0 0 0 12 -12 12 12 0 0 0 -0.0664 -1.1523c0.04-0.28 0.07-0.56 0.07-0.85v-12c0-3.324-2.676-6-6-6z" filter="url(#filter13488)" opacity=".2"/><path style="color-rendering:auto;color:#000;shape-rendering:auto;image-rendering:auto" id="path86" d="m90 152c-3.324 0-6 2.676-6 6v12c0 0.27298 0.02557 0.53962 0.06055 0.80273 0.000255 0.002-0.000257 0.004 0 0.006a12 12 0 0 0 -0.061 1.19 12 12 0 0 0 12 12 12 12 0 0 0 12 -12 12 12 0 0 0 -0.0664 -1.1523c0.04-0.28 0.07-0.56 0.07-0.85v-12c0-3.324-2.676-6-6-6z" filter="url(#filter13338)" opacity=".2" transform="translate(0,140.3)"/><rect style="color-rendering:auto;color:#000;shape-rendering:auto;image-rendering:auto" id="rect88" width="24" height="24" x="292.3" y="-108" fill="#263238" rx="6" ry="6" transform="rotate(90)"/><circle style="color-rendering:auto;color:#000;shape-rendering:auto;image-rendering:auto" id="circle90" cx="96" cy="312.3" r="12" fill="#263238"/><path style="color-rendering:auto;color:#000;shape-rendering:auto;image-rendering:auto" id="path92" fill="#37474f" d="m90 152c-3.324 0-6 2.676-6 6v1c0-3.324 2.676-6 6-6h12c3.324 0 6 2.676 6 6v-1c0-3.324-2.676-6-6-6z" transform="translate(0,140.3)"/><path style="color-rendering:auto;color:#000;shape-rendering:auto;image-rendering:auto" id="path94" fill="#1a252a" d="m84.021 171.43a12 12 0 0 0 -0.021 0.57 12 12 0 0 0 12 12 12 12 0 0 0 12 -12 12 12 0 0 0 -0.02 -0.41 12 12 0 0 1 -11.98 11.41 12 12 0 0 1 -11.979 -11.57z" transform="translate(0,140.3)"/></g><path id="path98" fill="url(#radialGradient5715)" fill-rule="evenodd" d="m316.86 445.95c-3.324 0-6 2.676-6 6v8c0 3.324 2.676 6 6 6h14v8h-32c-6.648 0-12 5.352-12 12v68c0 6.648 5.352 12 12 12l25.607 38c2.0698 3.5886 5.9358 6 10.393 6h16a12 12 0 0 0 12 12 12 12 0 0 0 11.998 -12h16.002c4.4568 0 8.3228-2.4114 10.393-6h0.01l25.598-38c6.6471-0.001 12-5.3526 12-12v-68c0-6.648-5.354-12-12.002-12h-31.998v-8h13.998c3.324 0 6.002-2.676 6.002-6v-8c0-3.324-2.678-6-6.002-6h-23.998c-3.324 0-6 2.676-6 6v8c0 3.324 2.676 6 6 6h2v8h-48v-8h1.998c3.324 0 6.002-2.676 6.002-6v-8c0-3.324-2.678-6-6.002-6z"/><path id="path100" fill="url(#linearGradient4536)" fill-rule="evenodd" d="m316.86 446.67c-3.324 0-6 2.676-6 6v8c0 3.324 2.676 6 6 6h14v8h-32c-6.648 0-12 5.352-12 12v68c0 6.648 5.352 12 12 12l25.607 38c2.0698 3.5886 5.9358 6 10.393 6h16a12 12 0 0 0 12 12 12 12 0 0 0 11.998 -12h16.002c4.4568 0 8.3228-2.4114 10.393-6h0.01l25.598-38c6.6471-0.001 12-5.3526 12-12v-68c0-6.648-5.354-12-12.002-12h-31.998v-8h13.998c3.324 0 6.002-2.676 6.002-6v-8c0-3.324-2.678-6-6.0019-6h-23.998c-3.324 0-6 2.676-6 6v8c0 3.324 2.676 6 6 6h2v8h-48v-8h1.998c3.324 0 6.002-2.676 6.002-6v-8c0-3.324-2.678-6-6.002-6z"/></g></svg>