<svg xmlns="http://www.w3.org/2000/svg" xmlns:svg="http://www.w3.org/2000/svg" id="svg3344" width="150" height="100" version="1.1" viewBox="0 0 150 100"><metadata id="metadata3349"/><g id="layer1" transform="translate(-17.144857,-22.362199)"><circle style="opacity:1;fill:#000;fill-opacity:1;stroke:#000;stroke-width:5;stroke-linecap:butt;stroke-linejoin:miter;stroke-miterlimit:4;stroke-dasharray:none;stroke-dashoffset:0;stroke-opacity:1" id="circle4219" cx="138.571" cy="106.862" r="13" d="m 151.57143,106.8622 c 0,7.1797 -5.8203,13 -13,13 -7.17971,0 -13,-5.8203 -13,-13 0,-7.179704 5.82029,-13.000002 13,-13.000002 7.1797,0 13,5.820298 13,13.000002 z"/><circle id="circle4741" cx="138.571" cy="72.362" r="13" d="m 151.57143,72.362198 c 0,7.179702 -5.8203,13 -13,13 -7.17971,0 -13,-5.820298 -13,-13 0,-7.179702 5.82029,-13 13,-13 7.1797,0 13,5.820298 13,13 z" style="opacity:1;fill:#000;fill-opacity:1;stroke:#000;stroke-width:5;stroke-linecap:butt;stroke-linejoin:miter;stroke-miterlimit:4;stroke-dasharray:none;stroke-dashoffset:0;stroke-opacity:1"/><circle style="opacity:1;fill:#000;fill-opacity:1;stroke:#000;stroke-width:5;stroke-linecap:butt;stroke-linejoin:miter;stroke-miterlimit:4;stroke-dasharray:none;stroke-dashoffset:0;stroke-opacity:1" id="circle4743" cx="138.571" cy="37.862" r="13" d="m 151.57143,37.862198 c 0,7.179702 -5.8203,13 -13,13 -7.17971,0 -13,-5.820298 -13,-13 0,-7.179702 5.82029,-13 13,-13 7.1797,0 13,5.820298 13,13 z"/></g></svg>