<svg xmlns="http://www.w3.org/2000/svg" xmlns:svg="http://www.w3.org/2000/svg" id="Capa_1" width="457.47" height="457.469" x="0" style="enable-background:new 0 0 457.47 457.469" y="0" version="1.1" viewBox="0 0 457.47 457.469" xml:space="preserve"><metadata id="metadata41"/><g id="g3" transform="matrix(0.57627118,0,0,0.57627118,96.921399,96.921399)"><path id="path5" d="M 228.734,0 C 102.41,0 0,102.41 0,228.735 0,355.06 102.41,457.469 228.734,457.469 355.059,457.469 457.469,355.06 457.469,228.735 457.47,102.41 355.06,0 228.734,0 z m 130.534,265.476 h -97.326 v 97.315 c 0,16.668 -13.506,30.186 -30.181,30.186 -16.668,0 -30.189,-13.518 -30.189,-30.186 v -97.315 h -97.309 c -16.674,0 -30.192,-13.512 -30.192,-30.187 0,-16.674 13.518,-30.188 30.192,-30.188 h 97.315 v -97.31 c 0,-16.674 13.515,-30.183 30.189,-30.183 16.675,0 30.187,13.509 30.187,30.183 v 97.315 h 97.314 c 16.669,0 30.192,13.515 30.192,30.188 0,16.676 -13.523,30.182 -30.192,30.182 z"/></g></svg>